<?xml version="1.0" encoding="UTF-8" standalone="no"?>
<!-- Created with Inkscape (http://www.inkscape.org/) -->

<svg
   xmlns:dc="http://purl.org/dc/elements/1.1/"
   xmlns:cc="http://creativecommons.org/ns#"
   xmlns:rdf="http://www.w3.org/1999/02/22-rdf-syntax-ns#"
   xmlns:svg="http://www.w3.org/2000/svg"
   xmlns="http://www.w3.org/2000/svg"
   xmlns:sodipodi="http://sodipodi.sourceforge.net/DTD/sodipodi-0.dtd"
   xmlns:inkscape="http://www.inkscape.org/namespaces/inkscape"
   width="1200"
   height="400"
   viewBox="0 0 317.49999 105.83334"
   version="1.1"
   id="svg8"
   sodipodi:docname="gecos_logo.svg"
   inkscape:version="0.92.3 (unknown)"
   inkscape:export-filename="/home/padix/data/coding/gecos/doc/static/assets/general/gecos_logo_xs.png"
   inkscape:export-xdpi="12"
   inkscape:export-ydpi="12">
  <title
     id="title25">gecos logo</title>
  <defs
     id="defs2" />
  <sodipodi:namedview
     id="base"
     pagecolor="#ffffff"
     bordercolor="#666666"
     borderopacity="1.0"
     inkscape:pageopacity="0.0"
     inkscape:pageshadow="2"
     inkscape:zoom="0.9899495"
     inkscape:cx="236.01593"
     inkscape:cy="163.32511"
     inkscape:document-units="px"
     inkscape:current-layer="text826"
     showgrid="false"
     units="px"
     inkscape:window-width="1920"
     inkscape:window-height="1005"
     inkscape:window-x="0"
     inkscape:window-y="1050"
     inkscape:window-maximized="1" />
  <metadata
     id="metadata5">
    <rdf:RDF>
      <cc:Work
         rdf:about="">
        <dc:format>image/svg+xml</dc:format>
        <dc:type
           rdf:resource="http://purl.org/dc/dcmitype/StillImage" />
        <dc:title>gecos logo</dc:title>
        <dc:date>2018-08-04</dc:date>
        <dc:creator>
          <cc:Agent>
            <dc:title>Patrick Kunzmann</dc:title>
          </cc:Agent>
        </dc:creator>
        <dc:description>The writing uses the 'Chelsea market' font.</dc:description>
      </cc:Work>
    </rdf:RDF>
  </metadata>
  <g
     inkscape:label="Layer 1"
     inkscape:groupmode="layer"
     id="layer1"
     transform="translate(0,-191.16666)">
    <g
       id="g4626">
      <path
         inkscape:connector-curvature="0"
         id="path4565"
         d="m 22.98518,211.74101 3.474503,37.95228"
         style="fill:none;stroke:#000000;stroke-width:7.9375;stroke-linecap:round;stroke-linejoin:miter;stroke-miterlimit:4;stroke-dasharray:none;stroke-opacity:1" />
      <path
         inkscape:connector-curvature="0"
         id="path4567"
         d="M 64.946497,213.34463 26.459683,249.69329"
         style="fill:none;stroke:#000000;stroke-width:7.9375;stroke-linecap:round;stroke-linejoin:miter;stroke-miterlimit:4;stroke-dasharray:none;stroke-opacity:1" />
      <path
         inkscape:connector-curvature="0"
         id="path4569"
         d="m 79.646322,245.41698 -53.186639,4.27631"
         style="fill:none;stroke:#000000;stroke-width:7.9375;stroke-linecap:round;stroke-linejoin:miter;stroke-miterlimit:4;stroke-dasharray:none;stroke-opacity:1" />
      <path
         inkscape:connector-curvature="0"
         id="path4571"
         d="M 63.342879,278.02386 26.459683,249.69329"
         style="fill:none;stroke:#000000;stroke-width:7.9375;stroke-linecap:round;stroke-linejoin:miter;stroke-miterlimit:4;stroke-dasharray:none;stroke-opacity:1" />
      <path
         inkscape:connector-curvature="0"
         id="path4573"
         d="m 38.754083,286.30922 -12.2944,-36.61593"
         style="fill:none;stroke:#000000;stroke-width:7.9375;stroke-linecap:round;stroke-linejoin:miter;stroke-miterlimit:4;stroke-dasharray:none;stroke-opacity:1" />
      <path
         sodipodi:nodetypes="cc"
         inkscape:connector-curvature="0"
         id="path4575"
         d="M -2.6726952,259.84954 26.459683,249.69329"
         style="fill:none;stroke:#000000;stroke-width:7.9375;stroke-linecap:round;stroke-linejoin:miter;stroke-miterlimit:4;stroke-dasharray:none;stroke-opacity:1" />
      <circle
         r="9.260417"
         cy="211.75143"
         cx="23.240929"
         id="path4520"
         style="fill:#c80000;fill-opacity:1;stroke:#ff1a1a;stroke-width:1.32291675;stroke-linecap:square;stroke-linejoin:miter;stroke-miterlimit:4;stroke-dasharray:none;stroke-dashoffset:0;stroke-opacity:1;paint-order:normal" />
      <circle
         r="9.260417"
         cy="212.54282"
         cx="64.946503"
         id="path4520-0"
         style="fill:#c87900;fill-opacity:1;stroke:#ffa419;stroke-width:1.32291675;stroke-linecap:square;stroke-linejoin:miter;stroke-miterlimit:4;stroke-dasharray:none;stroke-dashoffset:0;stroke-opacity:1;paint-order:normal" />
      <circle
         r="9.260417"
         cy="245.41698"
         cx="79.111786"
         id="path4520-6"
         style="fill:#93c800;fill-opacity:1;stroke:#c2ff19;stroke-width:1.32291675;stroke-linecap:square;stroke-linejoin:miter;stroke-miterlimit:4;stroke-dasharray:none;stroke-dashoffset:0;stroke-opacity:1;paint-order:normal" />
      <circle
         r="9.260417"
         cy="277.75659"
         cx="63.34288"
         id="path4520-4"
         style="fill:#00c8a1;fill-opacity:1;stroke:#19ffd2;stroke-width:1.32291675;stroke-linecap:square;stroke-linejoin:miter;stroke-miterlimit:4;stroke-dasharray:none;stroke-dashoffset:0;stroke-opacity:1;paint-order:normal" />
      <circle
         r="9.260417"
         cy="285.77466"
         cx="38.754082"
         id="path4520-62"
         style="fill:#006ac8;fill-opacity:1;stroke:#1993ff;stroke-width:1.32291675;stroke-linecap:square;stroke-linejoin:miter;stroke-miterlimit:4;stroke-dasharray:none;stroke-dashoffset:0;stroke-opacity:1;paint-order:normal" />
    </g>
    <g
       aria-label="gecos"
       style="font-style:normal;font-variant:normal;font-weight:normal;font-stretch:normal;font-size:70.55555725px;line-height:1.25;font-family:'Chelsea Market';-inkscape-font-specification:'Chelsea Market, Normal';font-variant-ligatures:normal;font-variant-caps:normal;font-variant-numeric:normal;font-feature-settings:normal;text-align:start;letter-spacing:0px;word-spacing:0px;writing-mode:lr-tb;text-anchor:start;fill:#000000;fill-opacity:1;stroke:none;stroke-width:0.26458335"
       id="text826">
      <path
         d="m 141.0268,224.27727 q 0.13781,0.75793 0.13781,1.51585 0,0.68902 -0.20671,1.51584 -0.1378,0.68902 -0.1378,0.96463 0,0.2067 -0.13781,0.41341 -0.2067,0.89572 -0.2067,1.58474 0.0689,0.62012 -0.0689,1.10243 0,1.17133 -0.20671,1.65365 -0.1378,0.62011 -0.34451,1.24023 -0.1378,0.62012 -0.48231,1.37804 0.2067,0.89573 0,2.06706 -0.0689,0.27561 -0.20671,0.55121 -0.0689,0.27561 -0.1378,0.55122 -0.0689,0.1378 -0.0689,0.34451 0.0689,0.2067 0,0.41341 -0.1378,0.62012 -0.1378,0.96463 0,0.2756 0,0.48231 -0.0689,1.17133 -0.2067,1.79145 -0.0689,0.62012 -0.20671,1.17133 -0.1378,1.17133 -0.48231,2.13596 0.0689,0.27561 0.1378,0.48231 0.1378,0.20671 0.20671,0.41342 0,0.68901 -0.13781,0.82682 0.20671,0.34451 0.27561,0.55121 0.0689,0.20671 0,0.68902 0,0.55122 -0.1378,0.96463 -0.0689,0.41341 -0.0689,0.75792 0,0.27561 0.0689,0.55122 0.1378,0.2067 0.2067,0.48231 0.13781,0.55121 0.0689,1.17133 0,0.62012 -0.2067,1.10243 0.2067,0.82683 0.2067,2.27377 0.0689,1.37803 -0.0689,2.54937 -0.2067,0.62011 -0.2067,1.17133 0.0689,0.55121 0,1.03353 0,0.27561 -0.0689,0.48231 0,0.20671 -0.0689,0.48231 0,0.27561 0.0689,0.55122 0.0689,0.20671 0.0689,0.48231 -0.13781,0.55122 -0.48232,1.17134 -0.0689,0.34451 -0.2067,0.62011 -0.13781,0.27561 -0.20671,0.55122 -0.1378,0.41341 -0.1378,0.89572 0,0.55122 -0.13781,1.03353 -0.1378,0.13781 -0.2756,0.34451 -0.0689,0.27561 -0.27561,0.34451 0,0.48231 -0.13781,1.03353 -0.41341,0.34451 -0.82682,0.75792 -0.34451,0.41341 -0.96463,0.62012 0,0.34451 -0.2756,0.48231 -0.27561,0.1378 -0.41341,0.34451 -0.13781,0.1378 -0.20671,0.34451 0,0.20671 -0.1378,0.34451 -0.27561,0.0689 -0.34451,0.34451 -0.0689,0.27561 -0.20671,0.41341 -1.30914,0.68902 -2.54937,1.24024 -1.17133,0.62011 -2.20486,1.51584 -0.34451,-0.0689 -1.03353,0.2067 -0.34451,0.0689 -0.68902,0.0689 -0.27561,0.0689 -0.68902,0.20671 -0.62012,0.1378 -0.96462,0.20671 -0.34451,0.1378 -0.48232,0.2067 -0.34451,0.13781 -0.75792,0.13781 -0.41341,0 -0.89572,0 -0.34451,0 -0.75793,0 -0.3445,0.0689 -0.68901,0.0689 -0.20671,0 -0.41342,-0.13781 -0.2067,-0.0689 -0.34451,-0.0689 -1.17133,0.27561 -1.92925,0.27561 -0.75792,0 -1.58474,0.0689 -0.20671,0 -0.48232,0.0689 -0.2067,0.13781 -0.41341,0.13781 -0.1378,0 -0.41341,-0.0689 -0.2067,-0.0689 -0.34451,-0.0689 h -0.89572 q -0.27561,-0.0689 -0.48232,-0.1378 -0.2067,-0.0689 -0.34451,-0.1378 -0.34451,0 -0.68902,0.0689 -0.34451,0.0689 -0.68901,0.0689 -0.55122,-0.1378 -1.03353,-0.1378 -0.20671,-0.13781 -0.48232,-0.13781 -0.2756,0 -0.41341,-0.0689 -0.1378,-0.0689 -0.48231,-0.27561 -0.27561,-0.2067 -0.48232,-0.34451 -0.2756,-0.0689 -0.55121,-0.0689 -0.20671,0.0689 -0.55122,-0.0689 -0.55121,-0.1378 -0.82682,-0.27561 -0.27561,-0.1378 -0.82682,-0.41341 -0.41341,-0.20671 -0.75792,-0.41341 -0.27561,-0.20671 -0.68902,-0.48231 -0.13781,-0.13781 -0.27561,-0.34451 -0.1378,-0.13781 -0.27561,-0.27561 -0.41341,-0.34451 -0.62011,-0.48232 -0.13781,-0.1378 -0.27561,-0.2067 -0.34451,-0.41341 -0.48232,-0.48231 -0.0689,0 -0.1378,-0.13781 -0.2067,-0.2067 -0.48231,-0.48231 -0.20671,-0.27561 -0.34451,-0.62012 -0.34451,-0.75792 -0.62012,-0.96463 -0.2067,-0.2067 -0.34451,-0.48231 -0.55121,-1.44694 -0.62012,-2.96278 -0.0689,-1.44694 -0.2067,-2.82498 0.41341,-0.55122 1.03353,-0.62012 0.68902,-0.0689 1.44694,-0.2067 0.34451,-0.13781 0.62011,-0.27561 0.34451,-0.20671 0.68902,-0.0689 0.20671,-0.13781 0.48232,-0.20671 0.2756,-0.0689 0.55121,-0.2067 0.34451,-0.0689 0.62012,-0.13781 0.27561,-0.0689 0.55121,-0.0689 0.41342,0.0689 0.62012,0.27561 0.20671,0.2067 0.48232,0.55121 0.3445,0.55122 0.55121,0.82683 0.20671,0.2756 0.48231,0.62011 0.41342,0.55122 0.55122,0.75792 0.2067,0.20671 0.41341,0.34451 0.55122,0.41342 0.82682,0.55122 0.34451,0.20671 0.62012,0.34451 0.41341,0.27561 0.48231,0.27561 0.13781,0.0689 0.34451,0.2067 0.41342,0.34451 0.89573,0.68902 0.55121,0.41341 1.30913,0.41341 0.27561,0.34451 0.55122,0.48232 0.34451,0.1378 0.68902,0.34451 0.27561,0.1378 0.48231,0.1378 0.20671,0.0689 0.41341,0.20671 0.34451,0.34451 0.48232,0.41341 0.1378,0.0689 0.27561,0.1378 0.41341,0.27561 1.17133,0.48231 0.82682,0.27561 1.58474,0.13781 0.75792,-0.13781 1.10243,-0.0689 0.34451,0.0689 0.48232,0 0.48231,0 0.96462,-0.13781 0.55122,-0.1378 1.03353,-0.27561 0.20671,-0.0689 0.41341,-0.1378 0.27561,-0.0689 0.48232,-0.27561 0.48231,-0.1378 0.55121,-0.2756 0.0689,-0.13781 0.13781,-0.13781 0.96462,-0.48231 1.37803,-0.96463 0.48232,-0.41341 0.96463,-0.68901 0.1378,-0.55122 0.48231,-0.96463 0.34451,-0.34451 0.62012,-0.82682 0.20671,-0.41342 0.34451,-0.55122 0.0689,-0.0689 0.1378,-0.0689 0.0689,-0.41341 0.20671,-0.55122 0.20671,-0.0689 0.34451,-0.2067 0.20671,-0.41341 0.48231,-1.51584 0.13781,-0.13781 0.27561,-0.34451 0.1378,-0.20671 0.27561,-0.41342 -0.13781,-0.48231 0,-1.17133 0.2067,-0.68902 0.48231,-1.03353 -0.1378,-0.1378 -0.1378,-0.34451 0.0689,-0.2756 0.0689,-0.62011 -0.41341,-0.13781 -0.68902,0.2756 -0.27561,0.34451 -0.55121,0.55122 -0.34451,0.20671 -0.68902,0.48231 -0.27561,0.20671 -0.62012,0.34451 -0.55122,0.20671 -0.89573,0.41341 -0.2756,0.20671 -0.62011,0.34451 -0.13781,0.13781 -0.34451,0.20671 -0.20671,0 -0.48232,0.1378 -0.2756,0.13781 -0.62011,0.34451 -0.27561,0.20671 -0.62012,0.34451 -0.34451,0.13781 -0.68902,0.20671 -0.34451,0 -0.75792,0.1378 -0.41341,0.0689 -0.82682,0.13781 -0.41342,0.0689 -1.03353,0.1378 -0.27561,0 -0.55122,0 -0.2067,-0.0689 -0.55121,-0.0689 -0.82683,0.0689 -1.44694,0.0689 -0.62012,0 -1.17134,-0.55122 -0.41341,-0.0689 -0.41341,0.27561 0.0689,0.27561 -0.41341,0.13781 -1.17133,0 -2.13596,-0.27561 -0.89572,-0.27561 -1.72255,-0.62012 -0.48231,-0.2067 -0.89572,-0.34451 -0.27561,-0.1378 -0.55122,-0.1378 -0.2756,0 -0.48231,-0.13781 -0.27561,-0.2067 -0.68902,-0.34451 -0.41341,-0.1378 -0.27561,-0.55121 -0.55121,-0.27561 -0.89572,-0.27561 -0.27561,-0.0689 -0.55122,-0.2067 -0.48231,-0.34451 -0.75792,-0.55122 -0.2756,-0.20671 -0.55121,-0.41341 l -0.82683,-0.82682 q -0.2067,-0.20671 -0.41341,-0.41342 -0.1378,-0.2756 -0.48231,-0.34451 0,-0.3445 -0.20671,-0.48231 -0.2067,-0.1378 -0.2067,-0.41341 -0.27561,-0.27561 -0.48231,-0.48231 -0.20671,-0.27561 -0.48232,-0.55122 -0.2067,-0.34451 -0.41341,-0.41341 -0.20671,-0.1378 -0.34451,-0.27561 -0.34451,-0.34451 -0.68902,-0.55121 -0.27561,-0.20671 -0.34451,-0.34451 -0.2067,-0.68902 -0.41341,-0.82683 -0.1378,-0.2067 -0.20671,-0.34451 -0.2067,-0.3445 -0.41341,-0.55121 -0.1378,-0.27561 -0.2756,-0.55122 -0.13781,-0.41341 -0.20671,-0.55121 -0.0689,-0.20671 -0.20671,-0.34451 -0.1378,-0.34451 -0.41341,-0.68902 -0.2067,-0.41341 -0.2067,-0.89572 -0.137807,-0.13781 -0.275611,-0.27561 -0.137804,-0.20671 -0.344509,-0.48232 -0.275608,-0.41341 -0.34451,-0.75792 -0.0689,-0.41341 -0.206706,-0.75792 -0.0689,-0.27561 -0.206705,-0.48231 -0.0689,-0.27561 -0.206706,-0.55122 -0.0689,-0.2067 -0.0689,-0.41341 0.0689,-0.27561 0,-0.55121 -0.137804,-0.75792 -0.206706,-1.03353 -0.0689,-0.27561 -0.0689,-0.55122 -0.137803,-0.68902 -0.206705,-0.68902 0,-0.0689 0.206705,-0.41341 0.137804,-0.2067 0.137804,-0.89572 0,-0.75792 0.137804,-1.17133 0.0689,-0.20671 0.206706,-0.34451 0.137804,-0.20671 0.275607,-0.48232 0.137804,-0.34451 0.0689,-0.62012 0,-0.3445 0.137804,-0.55121 0.34451,-0.41341 0.34451,-0.55122 0.0689,-0.1378 0.206705,-0.2756 0.137804,-0.27561 0.482315,-0.62012 0,-0.62012 0.1378,-1.30914 0.20671,-0.68902 0.55122,-1.17133 v -0.82682 q 0.2067,-0.20671 0.34451,-0.48232 0.1378,-0.2756 0.27561,-0.55121 0.2756,-0.55122 0.55121,-1.17133 0.34451,-0.68902 0.75792,-1.24024 0.27561,-0.48231 0.34451,-0.48231 0.1378,-0.0689 0.20671,-0.13781 0.55121,-0.48231 0.89572,-0.96462 0.34451,-0.48232 0.62012,-0.68902 0.2067,-0.1378 0.48231,-0.20671 0.34451,-0.1378 0.62012,-0.2756 0.20671,-0.27561 0.34451,-0.48232 0.2067,-0.27561 0.55121,-0.27561 0.34451,-0.62011 1.10243,-1.17133 0.27561,-0.2067 0.68902,-0.34451 0.48232,-0.1378 0.82683,-0.27561 0.48231,-0.2756 0.75792,-0.2756 0.27561,-0.0689 0.48231,-0.13781 0.82682,-0.48231 1.65365,-0.62011 0.82682,-0.20671 1.37804,-0.62012 0.82682,0.0689 1.51584,-0.27561 0.75792,-0.34451 1.51584,-0.48231 0.20671,0 0.41341,0.0689 0.20671,0 0.48231,0 0.48232,-0.0689 0.89573,-0.0689 0.48231,-0.0689 0.82682,0.41341 0.13781,-0.27561 0.41341,-0.34451 0.27561,-0.0689 0.55122,-0.20671 0.75792,0.13781 1.51584,0.13781 0.75792,-0.0689 1.44694,0.0689 0.68902,0.1378 1.17133,0.41341 0.55122,0.27561 1.17134,0.27561 0.48231,0.34451 0.89572,0.55121 0.48231,0.20671 1.03353,0.55122 0.48231,0.27561 0.75792,0.48231 0.34451,0.20671 0.82682,0.55122 0.48232,0.48231 0.68902,0.62012 0.20671,0.0689 0.34451,0.0689 0.13781,0.55121 0.48232,0.89572 0.34451,0.34451 0.68901,0.68902 0.13781,-0.27561 0.13781,-0.68902 0.0689,-0.41341 0.2067,-0.75792 -0.1378,-0.27561 -0.2756,-0.41341 -0.0689,-0.20671 0,-0.75792 0,-0.82682 0.34451,-1.03353 0.34451,-0.20671 0.89572,-0.1378 0.55122,0 1.24024,0.2756 0.68901,0.20671 1.51584,0.27561 0.62011,0.0689 1.44694,0.0689 0.82682,0 1.51584,-0.0689 0.34451,-0.0689 0.62012,-0.2067 0.34451,-0.13781 0.62011,-0.0689 0.48232,0.13781 0.75793,0.41342 0.3445,0.2756 0.62011,0.3445 z m -9.43956,19.56815 q 0.0689,-0.55122 0,-0.82683 0,-0.3445 -0.0689,-0.75792 -0.0689,-0.2756 -0.13781,-0.48231 -0.0689,-0.27561 0,-0.62012 -0.2756,-0.2067 -0.3445,-0.62011 0,-0.48232 -0.13781,-0.68902 -0.2067,-0.55122 -0.27561,-0.75792 0,-0.20671 -0.0689,-0.27561 -0.2067,-0.34451 -0.55121,-0.48232 -0.27561,-0.1378 -0.27561,-0.62011 -0.41341,-0.20671 -0.82682,-0.48232 -0.41342,-0.2756 -0.55122,-0.62011 -0.55121,-0.82683 -1.03353,-1.30914 -0.48231,-0.48231 -0.96462,-0.82682 -0.55122,-0.41341 -0.96463,-0.55122 -0.41341,-0.1378 -0.75792,-0.27561 -0.20671,-0.2067 -0.34451,-0.55121 -0.13781,-0.34451 -0.27561,-0.75792 -0.48231,-0.0689 -1.17133,-0.27561 -0.62012,-0.27561 -1.10243,-0.41341 -0.62012,-0.0689 -0.89573,-0.1378 -0.27561,-0.0689 -0.55121,-0.13781 -0.34451,0 -0.68902,0.0689 -0.34451,0 -0.68902,-0.0689 -0.34451,-0.0689 -0.68902,-0.1378 -0.34451,-0.0689 -0.68902,-0.13781 -0.75792,0.13781 -1.37804,0.0689 -0.55121,-0.0689 -0.89572,0 -0.48232,0.0689 -0.96463,0.34451 -0.41341,0.2756 -0.89572,0.2756 -0.13781,0.34451 -0.41342,0.48232 -0.2067,0.1378 -0.48231,0.34451 -0.55121,0.34451 -1.03353,0.55121 -0.48231,0.20671 -0.75792,0.75792 -0.48231,0.41341 -0.68902,0.48232 -0.1378,0.0689 -0.2067,0.2067 -0.20671,0.48232 -0.41342,0.68902 -0.2067,0.20671 -0.3445,0.34451 0.1378,0.34451 -0.20671,0.68902 -0.34451,0.27561 -0.48231,0.41341 -0.0689,0.75792 -0.20671,1.10243 -0.34451,0.34451 -0.41341,0.62012 -0.0689,0.27561 -0.20671,0.55121 -0.48231,0.96463 -0.48231,1.92926 0.0689,0.96462 0.0689,1.86035 -0.1378,0.55121 -0.0689,0.82682 0.0689,0.20671 0.0689,0.34451 -0.0689,0.62012 -0.1378,1.10243 0,0.41341 0.2067,0.96463 0.0689,0.1378 0.20671,0.55121 0.1378,0.41342 0.20671,0.41342 0.2756,0.55121 0.48231,0.75792 0.2067,0.2067 0.41341,0.55121 0.27561,0.41341 0.41341,0.89573 0.20671,0.41341 0.34451,0.89572 0.27561,0.27561 0.48231,0.55122 0.27561,0.2756 0.41342,0.68902 0.82682,0.41341 1.17133,0.68902 0.41341,0.2756 0.75792,0.48231 0.75792,0.41341 1.17133,0.75792 0.41341,0.27561 0.75792,0.41341 1.30914,0.48231 2.41157,0.48231 0.20671,0.0689 0.34451,0 0.20671,-0.0689 0.41341,-0.0689 1.79145,0.13781 2.68718,0.0689 0.89572,-0.0689 1.79145,-0.2067 0.75792,-0.13781 1.37803,-0.20671 0.68902,-0.1378 1.17134,-0.41341 0.62011,-0.48231 0.89572,-0.48231 0.27561,-0.0689 0.48231,-0.20671 0.68902,-0.34451 0.89573,-0.48231 0.2067,-0.20671 0.41341,-0.34451 0.41341,-0.34451 0.75792,-0.55122 0.41341,-0.2067 0.55122,-0.68901 0.2067,-0.13781 0.41341,-0.20671 0.27561,-0.1378 0.48231,-0.41341 0.34451,-0.55122 0.34451,-0.82682 0,-0.27561 0.13781,-0.48232 0.1378,-0.2067 0.2756,-0.34451 0.13781,-0.2067 0.27561,-0.41341 0.1378,-0.20671 0.20671,-0.34451 0.0689,-0.2067 0.1378,-0.41341 0.1378,-0.62012 0.34451,-0.75792 0.20671,-0.20671 0.1378,-0.55122 0.13781,-0.55121 0.27561,-0.96462 0.20671,-0.48232 0.34451,-1.03353 z"
         style="font-style:normal;font-variant:normal;font-weight:normal;font-stretch:normal;font-size:70.55555725px;font-family:'Chelsea Market';-inkscape-font-specification:'Chelsea Market, Normal';font-variant-ligatures:normal;font-variant-caps:normal;font-variant-numeric:normal;font-feature-settings:normal;text-align:start;writing-mode:lr-tb;text-anchor:start;stroke-width:0.26458335"
         id="path828" />
      <path
         d="m 185.67524,244.46554 q -0.0689,0.96462 0,1.30913 0.0689,0.34451 -0.1378,0.75792 -0.13781,0.27561 -0.55122,0.41341 -0.34451,0.13781 -0.48231,0.41342 -0.41341,-0.13781 -0.89573,-0.0689 -0.48231,0 -0.82682,0.13781 -0.48231,-0.41341 -1.37804,-0.34451 -0.82682,0.0689 -1.37804,-0.34451 -0.41341,0.2067 -0.75792,0.2067 -0.96462,0.13781 -2.06706,-0.0689 -1.03352,-0.2067 -2.13595,-0.34451 -0.75793,-0.0689 -1.58475,-0.0689 -0.82682,0 -1.44694,0 -0.68902,0.1378 -1.10243,0.1378 -0.55121,-0.0689 -1.03353,-0.2756 -0.41341,-0.20671 -0.96462,-0.20671 -0.41342,-0.0689 -0.89573,0.0689 -0.41341,0.0689 -0.82682,0.0689 -0.41341,0 -1.10243,-0.1378 -0.55122,0.0689 -0.75792,0.0689 -0.20671,-0.0689 -0.34451,-0.0689 -0.48232,0 -0.96463,0.0689 -0.41341,0.0689 -0.75792,-0.34451 -0.27561,0.20671 -0.48231,0.27561 -0.20671,0.0689 -0.75793,0.0689 -0.34451,-0.0689 -0.55121,-0.0689 -0.1378,-0.0689 -0.27561,-0.0689 -0.48231,0.1378 -0.82682,0.0689 -0.27561,-0.0689 -0.55122,0.20671 -0.1378,-0.13781 -0.48231,-0.0689 -0.34451,0 -0.48231,-0.1378 -0.89573,-0.1378 -1.44694,0 -0.55122,0.1378 -1.17134,0.1378 -0.55121,0 -1.10243,-0.1378 -0.48231,-0.1378 -1.24023,0 -0.34451,0.62012 -0.27561,1.58474 0.1378,0.89573 0.55122,1.44695 0.0689,0.3445 -0.0689,0.55121 -0.0689,0.20671 -0.0689,0.55122 0.55122,0.75792 0.89573,1.10243 0.41341,0.34451 0.62011,0.68902 0.34451,0.55121 0.82683,1.03352 0.48231,0.48232 0.89572,1.10243 0.13781,0.34451 0.34451,0.55122 0.27561,0.20671 0.48232,0.55122 0.55121,0.1378 0.89572,0.41341 0.41341,0.2756 0.96463,0.62011 0.75792,0.41342 1.03353,0.75792 0.34451,0.27561 0.82682,0.48232 0.34451,0.1378 0.55121,0.1378 0.20671,-0.0689 0.41342,0 0.3445,0.13781 0.75792,0.48232 0.41341,0.3445 0.89572,0.41341 0.75792,-0.0689 1.10243,0 0.34451,0 0.62012,0.0689 0.89572,0.0689 1.65364,-0.41341 0.34451,0 0.55122,0 0.20671,0 0.55122,-0.0689 0.62011,-0.41342 0.89572,-0.41342 0.34451,0 0.55122,-0.1378 0.2067,-0.20671 0.3445,-0.20671 0.20671,-0.0689 0.34451,-0.1378 0.41342,-0.1378 0.68902,-0.34451 0.34451,-0.2067 0.68902,-0.48231 0.48232,-0.27561 0.89573,-0.62012 0.68902,-0.41341 1.17133,-1.17133 0.55122,-0.75792 1.17133,-1.30914 0.0689,-0.82682 0.27561,-1.37804 0.20671,-0.55121 0.55122,-1.03353 0,-0.75792 0.1378,-1.17133 0.20671,-0.48231 0.48231,-0.89572 0.34451,-0.0689 0.62012,-0.13781 0.27561,-0.0689 0.68902,0.0689 0.2067,0.1378 0.34451,0.2756 0.2067,0.0689 0.55121,0.20671 0.20671,0.1378 0.41342,0.2067 0.2756,0 0.75792,0.13781 0.48231,0.2067 0.68902,0.2067 0.2067,0 0.41341,0.0689 0.55121,0.2756 0.96462,0.2067 0.48232,-0.0689 0.82683,0.0689 0.75792,0.55122 0.89572,0.82683 0,0.82682 -0.48231,1.51584 -0.34451,0.75792 -0.34451,0.96463 0.0689,0.1378 0,0.48231 -0.0689,0.2067 -0.20671,0.34451 -0.1378,0.1378 -0.2067,0.41341 -0.13781,0.41341 -0.20671,0.82682 -0.0689,0.34451 -0.27561,0.75792 -0.55121,0.68902 -0.89572,1.03353 -0.27561,0.27561 -0.62012,0.41341 0.13781,0.34451 -0.1378,0.55122 -0.27561,0.1378 -0.41341,0.27561 -0.20671,0.48231 -0.62012,0.75792 -0.34451,0.27561 -0.82682,0.62012 -0.55122,0.48231 -1.17134,0.82682 -0.55121,0.34451 -1.10243,0.68902 -0.75792,0.62011 -1.03353,0.89572 -0.2756,0.20671 -0.68901,0.34451 -0.34451,0.13781 -0.55122,0.27561 -0.1378,0.0689 -0.20671,0.0689 -0.34451,0.1378 -0.75792,0.1378 -0.41341,0 -0.82682,0.13781 -0.75792,0.27561 -1.30914,0.34451 -0.55121,0.1378 -1.10243,0.27561 -0.34451,0.1378 -0.62011,0.2067 -0.27561,0.0689 -0.82683,0 -0.68902,-0.1378 -1.03353,0.0689 -0.3445,0.20671 -0.68901,-0.0689 -0.75793,0.13781 -1.30914,0.27561 -0.48231,0.1378 -0.89573,0.0689 -0.2067,0 -0.41341,-0.0689 -0.2067,-0.0689 -0.41341,-0.1378 -1.30913,-0.20671 -2.13596,-0.27561 -0.75792,-0.0689 -1.37804,-0.27561 -0.2067,-0.0689 -0.41341,-0.0689 -0.2067,0 -0.34451,-0.27561 -0.68902,0.1378 -1.30913,-0.1378 -0.55122,-0.34451 -0.89573,-0.68902 -0.2067,0 -0.41341,-0.0689 -0.1378,-0.0689 -0.34451,-0.13781 -0.48231,-0.2067 -0.96463,-0.41341 -0.48231,-0.27561 -0.75792,-0.82682 -0.55121,0 -0.82682,-0.27561 -0.20671,-0.27561 -0.55122,-0.55122 -0.55121,0 -1.03352,-0.2756 -0.41342,-0.34451 -0.68902,-0.75792 -0.55122,-0.68902 -1.03353,-1.10243 -0.75792,-0.75793 -1.17133,-1.24024 -0.41342,-0.55121 -1.03353,-0.75792 -0.13781,-0.41341 -0.41341,-0.68902 -0.27561,-0.27561 -0.55122,-0.62012 -0.34451,-0.68902 -0.48231,-0.89572 -0.13781,-0.20671 -0.27561,-0.34451 -0.1378,-0.55122 -0.27561,-1.03353 -0.0689,-0.55121 -0.2067,-1.10243 -0.20671,-0.75792 -0.20671,-1.10243 0,-0.34451 -0.0689,-0.68902 -0.0689,-0.20671 -0.20671,-0.41341 -0.0689,-0.20671 -0.1378,-0.41341 -0.0689,-0.34451 -0.0689,-0.68902 0.0689,-0.34451 0,-0.75792 -0.0689,-0.34451 -0.13781,-0.62012 -0.0689,-0.34451 -0.0689,-0.68902 0,-0.48231 0.0689,-0.96463 0.0689,-0.55121 0.0689,-1.10243 0,-0.1378 -0.0689,-0.34451 0,-0.2756 0,-0.41341 0.0689,-0.34451 0.20671,-0.68902 0.2067,-0.41341 0.27561,-0.75792 -0.13781,-0.62011 -0.0689,-0.89572 0.13781,-0.27561 0,-0.41341 0.13781,-0.13781 0.20671,-0.34451 0.0689,-0.27561 0.1378,-0.41341 0.0689,-0.20671 0.0689,-0.48232 0,-0.27561 0.1378,-0.62012 0.34451,-0.55121 0.41341,-0.62011 0.13781,-0.13781 0.20671,-0.20671 0.0689,-0.48231 0.1378,-0.62012 0.0689,-0.2067 0.20671,-0.34451 0.34451,-0.68901 0.41341,-0.82682 0.1378,-0.1378 0.2067,-0.27561 0.0689,-0.55121 0.13781,-0.62011 0.0689,-0.0689 0.1378,-0.20671 0.13781,-0.41341 0.13781,-0.68902 0.0689,-0.34451 0.2067,-0.68902 0.1378,-0.34451 0.34451,-0.68902 0.20671,-0.41341 0.55122,-0.68902 0.34451,-0.82682 0.62011,-1.37803 0.27561,-0.62012 0.55122,-1.17134 0.62012,-0.48231 1.03353,-1.10243 0.48231,-0.62011 1.10243,-1.10243 0.1378,-0.1378 0.27561,-0.1378 0.2067,-0.0689 0.48231,-0.20671 0.75792,-0.55121 1.10243,-0.82682 0.34451,-0.34451 0.82682,-0.55121 0.41341,-0.13781 1.24024,-0.13781 0.89572,-0.0689 1.24023,-0.55121 0.41341,0 0.82682,-0.13781 0.41342,-0.2067 0.82683,-0.41341 0.2756,-0.1378 0.62011,-0.27561 0.34451,-0.2067 0.96463,-0.1378 0.48231,0.0689 0.89573,0.0689 0.48231,-0.0689 1.03352,-0.2067 0.27561,-0.0689 0.62012,-0.13781 0.34451,-0.0689 0.75792,-0.0689 1.03353,0.1378 1.58475,0.1378 0.62011,0 1.37803,0.0689 0.34451,0 0.68902,-0.0689 0.41342,-0.1378 0.82683,-0.1378 0.34451,0.0689 0.62011,0.0689 0.34451,0 0.68902,0.0689 0.48232,0.13781 0.55122,0.13781 0.1378,0 0.2067,0 0.34451,0.0689 0.55122,0.2756 0.27561,0.13781 0.62012,0.27561 0.1378,0.13781 0.34451,0.13781 0.2756,0 0.41341,0.1378 0.27561,0.0689 0.82682,0.34451 0.48231,0.1378 0.89573,0.27561 0.41341,0.1378 0.55121,0.62011 0.75792,0.20671 1.10243,0.55122 0.41341,0.34451 0.75792,0.55122 0.27561,0.2067 0.55122,0.62011 0.27561,0.34451 0.62011,0.55122 0.0689,0.2067 0.13781,0.34451 0.1378,0.1378 0.2067,0.41341 0.55122,0.34451 0.96463,0.89572 0.41341,0.48232 1.17133,0.75792 0.20671,0.48232 0.48232,0.82683 0.2756,0.34451 0.34451,0.96462 0.1378,0.20671 0.2756,0.48232 0.20671,0.2067 0.41342,0.55121 0.0689,0.13781 0.2067,0.34451 0.20671,0.20671 0.27561,0.41341 0.34451,0.75793 0.75792,1.44694 0.1378,0.20671 0.34451,0.48232 0.27561,0.27561 0.41341,0.62011 0.0689,0.27561 0.0689,0.55122 0,0.27561 0.0689,0.55122 0.13781,0.3445 0.20671,0.62011 0.0689,0.20671 0.1378,0.34451 0.13781,0.55122 0.0689,1.10243 -0.0689,0.48232 0,1.03353 0.0689,0.41341 0.0689,0.89573 0.0689,0.41341 0.1378,0.82682 0,0.55121 0.0689,0.89572 z m -9.85297,-5.51216 q 0.1378,-0.1378 0,-0.48231 -0.0689,-0.34451 -0.34451,-0.48231 -0.13781,-0.48232 -0.41341,-0.55122 -0.20671,-0.1378 0,-0.41341 -0.20671,-0.20671 -0.55122,-0.34451 -0.34451,-0.1378 -0.27561,-0.55122 -0.34451,0.0689 -0.48231,-0.1378 -0.0689,-0.27561 -0.20671,-0.34451 -0.48231,-0.34451 -0.62011,-0.68902 -0.13781,-0.34451 -0.41342,-0.55121 -0.2067,-0.13781 -0.48231,0 -0.2067,0.0689 -0.2067,-0.34451 -1.10244,0.0689 -1.72255,-0.34451 -0.55122,-0.48232 -1.10243,-1.03353 -0.62012,0.1378 -1.37804,0.0689 -0.75792,-0.0689 -1.44694,0 -0.55122,-0.34451 -1.03353,-0.27561 -0.41341,0 -1.03353,-0.2067 -0.27561,-0.0689 -0.34451,-0.27561 0,-0.27561 -0.34451,-0.27561 -0.48231,0.20671 -0.96462,0 -0.41342,-0.2067 -0.96463,-0.27561 -0.55122,0.34451 -1.17133,0.48232 -0.62012,0.0689 -1.24024,0.2756 -0.34451,0.13781 -0.75792,0.68902 -0.41341,0.48232 -0.62012,0.68902 -0.48231,0.55122 -0.96462,1.10243 -0.48232,0.55122 -0.89573,1.10243 0.0689,0.41342 -0.0689,0.68902 -0.1378,0.20671 -0.0689,0.55122 -0.48232,0.34451 -0.68902,1.10243 -0.1378,0.68902 -0.27561,1.37804 0.48231,0.0689 1.10243,0 0.62012,-0.0689 1.30914,-0.13781 0.2067,-0.0689 0.41341,-0.0689 0.27561,0 0.48231,0 1.03353,-0.2067 1.79145,-0.1378 0.75792,0 1.37804,-0.0689 0.68902,0 1.30914,-0.0689 0.68902,-0.1378 1.24023,0.13781 0.75792,-0.34451 1.72255,-0.27561 1.03353,0.0689 1.65365,0.1378 0.55121,0 0.62011,-0.0689 0.0689,-0.0689 0.13781,0 1.99815,-0.1378 3.92741,0.13781 1.99815,0.2067 3.99631,-0.13781 z"
         style="font-style:normal;font-variant:normal;font-weight:normal;font-stretch:normal;font-size:70.55555725px;font-family:'Chelsea Market';-inkscape-font-specification:'Chelsea Market, Normal';font-variant-ligatures:normal;font-variant-caps:normal;font-variant-numeric:normal;font-feature-settings:normal;text-align:start;writing-mode:lr-tb;text-anchor:start;stroke-width:0.26458335"
         id="path830" />
      <path
         d="m 227.3609,257.488 q 0.1378,0.75792 -0.34451,1.44694 -0.41341,0.68902 -1.17133,0.82682 -0.34451,0.34451 -0.75792,0.75792 -0.41341,0.41341 -1.03353,0.75792 -0.34451,0.20671 -0.68902,0.55122 -0.34451,0.2756 -0.89573,0.55121 -0.2756,0.13781 -0.68901,0.34451 -0.34451,0.13781 -0.68902,0.34451 -0.41342,0.27561 -0.62012,0.27561 -0.1378,0 -0.27561,0.1378 -0.2067,0.0689 -0.48231,0.13781 -0.20671,0.1378 -0.41341,0.2756 -0.68902,0.20671 -1.51585,0.55122 -0.82682,0.34451 -1.99815,0.41341 -1.17133,0.0689 -2.34267,0.0689 -0.55121,0 -0.96462,0.0689 -0.41341,0.0689 -0.89573,0 -0.41341,0 -0.89572,-0.2067 -0.41341,-0.1378 -0.89573,-0.20671 -0.55121,-0.0689 -1.10243,-0.0689 -0.48231,0 -0.82682,-0.0689 -0.82682,-0.27561 -1.30914,-0.27561 -0.41341,0 -0.75792,-0.1378 -0.48231,-0.20671 -0.68902,-0.20671 -0.1378,0 -0.2756,0 -0.34451,-0.27561 -0.48232,-0.27561 -0.1378,0 -0.27561,-0.0689 -0.48231,-0.2067 -0.89572,-0.41341 -0.34451,-0.27561 -0.75792,-0.41341 -0.41341,-0.20671 -0.82682,-0.34451 -0.96463,-0.41341 -1.51585,-0.62012 -0.48231,-0.2756 -0.89572,-0.2756 -0.55122,-0.68902 -1.30914,-1.24024 -0.68902,-0.55121 -1.03353,-1.44694 -0.34451,-0.34451 -0.75792,-0.62012 -0.34451,-0.2756 -0.68902,-0.62011 -0.2067,-0.34451 -0.34451,-0.41342 -0.1378,-0.1378 -0.2756,-0.2756 -0.13781,-0.34451 -0.41342,-0.48232 -0.2067,-0.2067 -0.3445,-0.34451 -0.41342,-0.68901 -0.68902,-0.89572 -0.20671,-0.20671 -0.34451,-0.55122 -0.20671,-0.34451 -0.41342,-0.55121 -0.1378,-0.20671 -0.2756,-0.41341 -0.34451,-0.75792 -0.48232,-1.03353 -0.1378,-0.34451 -0.2756,-0.62012 -0.34451,-0.68902 -0.41342,-1.24023 -0.2067,-0.96463 -0.41341,-1.79145 -0.1378,-0.82683 0.20671,-1.37804 -0.27561,-0.82682 -0.27561,-1.79145 0.20671,-0.48231 0.13781,-0.68902 0,-0.27561 0,-0.41341 0,-0.34451 0.0689,-0.48231 0.0689,-0.13781 -0.0689,-0.48232 -0.0689,-0.2067 -0.13781,-1.10243 0,-0.89572 0.0689,-1.51584 0.0689,-0.1378 0.13781,-0.27561 0.0689,-0.2067 0.1378,-0.48231 0,-0.62012 0.0689,-0.75792 0.0689,-0.13781 0.13781,-0.20671 0.1378,-0.62012 0.2756,-1.30913 0.13781,-0.75793 0.34451,-1.44694 0.13781,-0.34451 0.20671,-0.62012 0.1378,-0.34451 0.55121,-0.48232 -0.3445,-0.41341 -0.0689,-1.03352 0.34451,-0.62012 0.68902,-0.89573 0,-0.34451 0.0689,-0.75792 0.13781,-0.41341 0.27561,-0.75792 0.20671,-0.55122 0.34451,-0.62012 0.13781,-0.1378 0.13781,-0.27561 0.1378,-0.41341 0.3445,-0.62011 0.20671,-0.20671 0.48232,-0.55122 0.34451,-0.48231 0.62012,-1.03353 0.3445,-0.55121 0.68901,-1.03353 0.68902,-0.2067 0.75793,-0.48231 0.1378,-0.34451 0.2756,-0.48231 1.10243,-0.75792 1.86035,-1.24024 0.75793,-0.55121 1.72255,-0.82682 0.34451,-0.41341 0.82683,-0.68902 0.55121,-0.27561 0.89572,-0.68902 0.75792,-0.0689 1.03353,-0.41341 0.34451,-0.41341 1.10243,-0.48231 0.55121,-0.27561 0.89572,-0.62012 0.27561,-0.0689 0.55122,-0.0689 0.27561,0 0.55121,-0.13781 0.48232,-0.1378 0.82683,-0.2756 0.41341,-0.20671 0.82682,-0.34451 0.20671,-0.0689 0.48231,-0.0689 0.27561,0 0.62012,0 0.96463,-0.13781 1.92925,-0.0689 0.96463,0 1.99816,0 0.55122,0.48232 1.30914,0.48232 0.82682,-0.0689 1.51584,0.48231 1.10243,0 2.34266,0.41341 0.89573,0.27561 1.24024,0.48231 0.68902,0.27561 0.75792,0.82683 0.75792,0.1378 1.24023,0.68902 0.55122,0.48231 1.03353,1.03353 0.27561,0.2756 0.48232,0.48231 0.2756,0.2067 0.48231,0.55121 0.34451,0.48232 0.55121,0.68902 0.20671,0.20671 0.41342,0.41341 0.34451,0.41342 0.75792,0.96463 0.48231,0.48231 1.10243,0.82682 0,0.34451 0.0689,0.55122 0.1378,0.20671 0.0689,0.55122 0.20671,0.1378 0.34451,0.2756 0.20671,0.0689 0.20671,0.41341 v 1.17134 q -0.13781,0.34451 -0.27561,0.48231 -0.13781,0.1378 -0.27561,0.27561 0,0.62011 -0.34451,0.89572 -0.27561,0.27561 -0.41341,0.82683 -0.55122,0.34451 -0.96463,0.89572 -0.41341,0.48231 -1.10243,0.82682 -0.41341,-0.0689 -0.75792,-0.1378 -0.27561,-0.1378 -0.62012,0 -0.41341,-0.96463 -0.62011,-1.58474 -0.13781,-0.62012 -0.48232,-1.10244 -0.34451,-0.2067 -0.62011,-0.41341 -0.20671,-0.2756 -0.55122,-0.48231 -0.1378,-0.1378 -0.41341,-0.20671 -0.20671,-0.0689 -0.34451,-0.2067 -0.20671,-0.13781 -0.34451,-0.27561 -0.0689,-0.2067 -0.34451,-0.0689 -0.2067,-0.1378 -0.34451,-0.34451 -0.1378,-0.27561 -0.27561,-0.41341 -1.03352,-0.13781 -2.13596,-0.20671 -1.10243,-0.1378 -1.65364,-0.68902 -0.41341,0.0689 -1.24024,0 -0.82682,-0.0689 -1.17133,-0.41341 -0.62012,0.0689 -1.24023,0.20671 -0.55122,0.0689 -1.30914,0 -0.34451,-0.0689 -0.62012,-0.0689 -0.2067,0 -0.68902,0.1378 -0.62011,0.1378 -1.30913,0.34451 -0.68902,0.2067 -1.24024,0.48231 -0.2067,0.13781 -0.41341,0.34451 -0.2067,0.20671 -0.48231,0.34451 -0.27561,0.13781 -0.55122,0.20671 -0.2067,0.0689 -0.41341,0.2067 -0.48231,0.27561 -0.82682,0.82683 -0.27561,0.48231 -0.68902,0.96462 -0.1378,0.13781 -0.27561,0.27561 -0.1378,0.0689 -0.2756,0.27561 -0.27561,0.34451 -0.62012,0.82682 -0.27561,0.48231 -0.68902,0.75792 0,0.68902 -0.48231,0.89573 0.0689,0.41341 -0.0689,0.68902 -0.0689,0.2067 -0.2067,0.48231 -0.0689,0.2067 -0.20671,0.55121 -0.0689,0.27561 0,0.68902 -0.27561,0.20671 -0.34451,0.55122 -0.0689,0.27561 -0.2067,0.62012 -0.27561,0.82682 -0.41341,1.37803 -0.13781,0.55122 -0.20671,1.03353 0.0689,0.75792 -0.1378,1.58475 -0.20671,0.82682 -0.13781,1.58474 0.0689,0.48231 0.20671,1.10243 0.1378,0.55122 0.27561,1.10243 0.1378,0.48232 0.2067,0.96463 0.0689,0.41341 0.20671,0.89572 0.34451,0.41342 0.34451,0.62012 0.0689,0.20671 0.2067,0.34451 0.20671,0.34451 0.27561,0.48231 0.0689,0.0689 0.20671,0.20671 0.1378,0.20671 0.34451,0.55121 0.2756,0.34451 0.41341,0.68902 0.1378,0.20671 0.2756,0.48232 0.20671,0.2756 0.34451,0.41341 0.13781,0.1378 0.34451,0.2067 0.27561,0 0.20671,0.34451 0.48231,0 0.82682,0.27561 0.34451,0.20671 0.68902,0.41341 0.27561,0.13781 0.55122,0.34451 0.34451,0.13781 0.62011,0.27561 0.20671,0.1378 0.89573,0.41341 0.75792,0.20671 1.03353,0.20671 0.75792,-0.0689 1.03353,0.0689 0.34451,0.0689 0.55121,0.0689 0.48231,0.0689 0.89573,0.13781 0.48231,0 0.89572,0.0689 0.55122,0 0.96463,-0.0689 0.48231,-0.0689 0.89572,0.2067 0.34451,-0.1378 0.62012,-0.2067 0.27561,-0.13781 0.55121,-0.20671 0.34451,-0.1378 0.68902,-0.1378 0.34451,-0.0689 0.62012,-0.20671 0.41341,-0.34451 0.55122,-0.34451 0.1378,-0.0689 0.2756,-0.1378 0.68902,-0.55122 1.24024,-0.68902 0.62012,-0.20671 0.96463,-0.34451 0.3445,-0.13781 0.62011,-0.34451 0.27561,-0.27561 0.62012,-0.34451 0.1378,-0.34451 0.55122,-0.48231 0.48231,-0.13781 0.82682,-0.55122 0.1378,-0.0689 0.41341,-0.20671 0.27561,-0.2067 0.48231,-0.2067 0.27561,-0.27561 0.41341,-0.62012 0.20671,-0.34451 0.55122,-0.48231 0.27561,0.1378 0.48231,0.27561 0.27561,0.0689 0.68902,0 0.34451,0.55121 0.68902,1.17133 0.41341,0.55121 0.82682,1.10243 0.13781,0.41341 0.34451,0.48231 0.20671,0.0689 0.20671,0.13781 0.1378,0.1378 0.0689,0.34451 0,0.2067 0.13781,0.41341 0.41341,0.1378 0.62011,0.41341 0.27561,0.2067 0.75792,0.27561 0.13781,0.34451 0.48232,0.62011 0.34451,0.27561 0.48231,0.82683 z"
         style="font-style:normal;font-variant:normal;font-weight:normal;font-stretch:normal;font-size:70.55555725px;font-family:'Chelsea Market';-inkscape-font-specification:'Chelsea Market, Normal';font-variant-ligatures:normal;font-variant-caps:normal;font-variant-numeric:normal;font-feature-settings:normal;text-align:start;writing-mode:lr-tb;text-anchor:start;stroke-width:0.26458335"
         id="path832" />
      <path
         d="m 273.31848,242.26067 q -0.13781,0.75792 0,1.24024 0.1378,0.48231 -0.13781,0.82682 0.41341,0.34451 0.27561,0.82682 -0.0689,0.48232 -0.20671,1.03353 -0.0689,0.34451 0,0.68902 0.0689,0.34451 0,0.55122 -0.34451,0.62011 -0.48231,0.89572 -0.0689,0.27561 -0.20671,0.27561 0.0689,0.41341 -0.0689,0.82682 -0.1378,0.41341 -0.2756,0.82683 -0.13781,0.55121 -0.27561,0.68901 -0.0689,0.13781 -0.0689,0.27561 -0.0689,0.68902 -0.20671,0.96463 -0.0689,0.2067 -0.1378,0.34451 -0.20671,0.55121 -0.41342,1.10243 -0.2067,0.55121 -0.41341,1.10243 -0.34451,0.68902 -0.62011,1.37804 -0.27561,0.62012 -0.75793,1.10243 0,0.34451 0,0.48231 0.0689,0.0689 0,0.41341 -0.3445,0.34451 -0.62011,0.62012 -0.27561,0.20671 -0.55122,0.75792 -0.2067,0.55122 -0.68902,1.10243 -0.2756,0.34451 -0.62011,0.55122 -0.34451,0.1378 -0.68902,0.48231 -0.34451,0 -0.41341,0.0689 -0.0689,0.0689 -0.34451,-0.0689 -0.55122,0.55122 -1.03353,0.82682 -0.48232,0.27561 -1.37804,0.55122 -0.41341,0.1378 -0.62012,0.1378 -0.1378,0 -0.27561,0.0689 -0.41341,0.13781 -0.89572,0.27561 -0.41341,0.20671 -0.96463,0.20671 -0.75792,-0.0689 -1.10243,0 -0.27561,0.1378 -0.62012,0.2067 -0.55121,0.13781 -1.17133,0.0689 -0.62011,0 -1.24023,0.0689 -0.55122,0 -0.68902,0.0689 -0.13781,0.1378 -0.27561,0.1378 -0.55121,0 -0.82682,-0.0689 -0.20671,0 -0.34451,0.0689 -0.41341,0.0689 -0.82682,0.20671 -0.41342,0.20671 -1.10243,0.0689 -1.17134,0.27561 -2.34267,0.27561 -1.17133,0.0689 -1.86035,-0.48231 -0.41341,0.2067 -0.89573,0.0689 -0.48231,-0.13781 -0.68902,-0.20671 -0.1378,0 -0.2756,0 -0.68902,-0.1378 -1.44694,-0.41341 -0.68902,-0.20671 -1.24024,-0.62012 -0.96462,-0.34451 -1.44694,-0.62011 -0.41341,-0.27561 -1.10243,-0.34451 -0.41341,-0.41342 -0.62012,-0.68902 -0.2067,-0.27561 -0.34451,-0.41341 -0.1378,-0.13781 -0.3445,-0.13781 -0.20671,-0.0689 -0.34451,-0.2067 -0.55122,-0.48232 -0.82683,-0.55122 -0.2067,-0.1378 -0.34451,-0.27561 -0.1378,-0.1378 -0.2756,-0.2756 -0.13781,-0.20671 -0.27561,-0.41342 -0.62012,-0.75792 -0.89573,-1.03352 -0.2756,-0.27561 -0.55121,-0.48232 -0.0689,-0.27561 -0.20671,-0.41341 -0.0689,-0.1378 0,-0.48231 -0.48231,-0.41341 -0.55121,-0.55122 -0.0689,-0.1378 -0.13781,-0.2067 -0.48231,-0.75792 -0.82682,-1.10243 -0.1378,-0.20671 -0.20671,-0.48232 -0.0689,-0.27561 -0.2067,-0.75792 -0.13781,-0.62012 -0.27561,-0.96463 -0.1378,-0.41341 0,-0.75792 -0.1378,-0.2067 -0.34451,-0.34451 -0.1378,-0.1378 -0.2067,-0.34451 -0.13781,-0.55121 -0.13781,-1.03352 0.0689,-0.48232 -0.0689,-0.96463 -0.0689,-0.34451 -0.27561,-0.62012 -0.1378,-0.27561 0,-0.62012 -0.2067,-0.2067 -0.34451,-0.48231 -0.0689,-0.34451 -0.2756,-0.55121 0.1378,-0.41342 -0.0689,-0.82683 -0.1378,-0.41341 -0.1378,-0.96462 0,-0.27561 0,-0.48232 0.0689,-0.2756 0.1378,-0.62011 v -1.17134 q 0.0689,-0.41341 0.13781,-0.75792 0.1378,-0.34451 0.2756,-0.68902 0.0689,-0.41341 0.0689,-0.68902 0,-0.34451 0.2756,-0.48231 -0.2756,-0.89572 0.0689,-1.65365 0.34451,-0.75792 0.34451,-1.65364 0.1378,-0.13781 0.2067,-0.34451 0.0689,-0.27561 0.20671,-0.41341 0,-0.75792 0.2067,-1.24024 0.27561,-0.48231 0.41341,-1.03353 0.41342,-0.1378 0.55122,-0.41341 0.20671,-0.34451 0.41341,-0.68902 0.41341,-0.2756 0.55122,-0.62011 0.1378,-0.41341 0.48231,-0.34451 0.41341,-0.62012 0.62012,-1.03353 0.2756,-0.41341 0.75792,-0.68902 0.55121,-0.27561 0.68902,-0.34451 0.1378,-0.0689 0.2756,-0.20671 0.20671,-0.2067 0.34451,-0.34451 0.13781,-0.2067 0.27561,-0.34451 0.62012,-0.48231 1.24024,-0.75792 0.2067,-0.2756 0.48231,-0.48231 0.34451,-0.20671 0.68902,-0.41341 0.55121,-0.34451 0.75792,-0.41341 0.20671,-0.0689 0.34451,-0.0689 0.20671,-0.13781 0.55121,-0.34451 0.41342,-0.27561 0.75793,-0.0689 0.82682,-0.82682 2.96278,-0.82682 1.10243,-0.27561 1.65364,-0.41341 0.55122,-0.1378 1.44694,-0.0689 0.27561,0 0.48232,0.0689 0.2756,0.0689 0.48231,0.0689 0.34451,0 0.62012,-0.0689 0.34451,-0.0689 0.68902,-0.1378 0.89572,-0.13781 1.37804,-0.13781 0.48231,-0.0689 0.96462,0.0689 0.75792,0.20671 1.03353,0.20671 0.34451,-0.0689 0.48231,-0.0689 0.20671,0.0689 0.41342,0.1378 0.2067,0.0689 0.34451,0.13781 0.75792,0.2067 1.10243,0.2067 0.34451,0 0.55121,0.0689 0.27561,0 0.55122,0.13781 0.2756,0.0689 0.55121,0.2067 0.27561,0.0689 0.55122,0.20671 0.2756,0.0689 0.55121,0.1378 0.96463,0.20671 1.79145,0.13781 0.82682,-0.0689 1.79145,0.34451 0.13781,0.0689 0.34451,0.2067 0.20671,0.13781 0.41341,0.27561 0.34451,0.0689 0.48232,0.2067 0.1378,0.13781 0.2756,0.20671 1.17134,0.62012 1.86036,1.17133 0.68901,0.55122 1.30913,1.10243 0,0.34451 0.13781,0.62012 0.1378,0.20671 0.2756,0.48231 0.34451,0.27561 0.55122,0.55122 0.2067,0.20671 0.48231,0.48231 0.13781,0.13781 0.0689,0.34451 0,0.20671 0.13781,0.48232 0.1378,0.34451 0.34451,0.75792 0.2756,0.41341 0.48231,0.75792 0,0.55121 0.0689,0.62012 0.0689,0.0689 0.27561,0.55121 0.1378,0.34451 0.34451,0.89573 0.20671,0.48231 0.75792,0.68901 -0.0689,0.34451 0.1378,0.75793 0.20671,0.3445 0.27561,0.75792 0.0689,0.48231 0.0689,0.96462 0,0.48232 0,0.89573 -0.0689,0.75792 0,1.10243 0.0689,0.27561 0.0689,0.55121 z m -8.19933,-0.75792 q -0.0689,-0.55121 -0.0689,-0.68902 0.0689,-0.1378 0,-0.48231 -0.13781,-0.68902 -0.41342,-1.30914 -0.2756,-0.62011 -0.41341,-1.44694 -0.0689,-0.41341 -0.0689,-0.82682 0.0689,-0.48231 -0.0689,-0.96463 -0.27561,-0.1378 -0.34451,-0.41341 0,-0.2756 -0.20671,-0.41341 -0.1378,-0.27561 -0.41341,-0.41341 -0.2756,-0.1378 -0.34451,-0.48231 -0.75792,-0.34451 -1.30913,-0.68902 -0.68902,0 -1.37804,-0.13781 -0.34451,-0.1378 -0.55122,-0.2756 -0.1378,-0.13781 -0.41341,-0.20671 -0.55121,-0.0689 -0.75792,0.1378 -0.2067,0.20671 -0.82682,0.0689 -0.34451,-0.13781 -0.55122,-0.48232 -0.1378,-0.41341 -0.48231,-0.62011 -0.34451,-0.13781 -0.48231,-0.0689 -0.0689,0 -0.41342,0 -0.2067,-0.0689 -0.2756,-0.2067 -0.0689,-0.20671 -0.41341,-0.13781 -0.62012,0.13781 -1.37804,0.41342 -0.68902,0.2067 -1.44694,-0.13781 -0.34451,0.0689 -0.55122,0.20671 -0.1378,0.1378 -0.34451,0.2756 0,-0.2067 -0.34451,-0.1378 -0.27561,0.0689 -0.41341,0 -0.55121,0.41341 -1.30914,0.75792 -0.75792,0.27561 -1.30913,0.55122 -0.55122,0.2067 -0.82682,0.48231 -0.20671,0.27561 -0.34451,0.41341 -0.20671,0.20671 -0.41342,0.41341 -0.1378,0.20671 -0.41341,0.34451 -0.96462,0.55122 -1.44694,1.10243 -0.48231,0.48232 -1.03353,0.75792 -0.0689,0.55122 -0.48231,0.89573 -0.34451,0.27561 -0.55121,0.82682 -0.13781,0.34451 -0.27561,0.82683 -0.0689,0.48231 -0.20671,0.82682 -0.41341,1.24023 -0.41341,2.13596 0.0689,0.82682 -0.34451,1.51584 0.20671,0.1378 0.13781,0.41341 0,0.27561 0.0689,0.55122 0.1378,0.34451 0.2067,0.68902 0.13781,0.34451 0,0.75792 0,0.68902 0.0689,0.96462 0.34451,0.48232 0.27561,0.62012 0,0.1378 0.0689,0.27561 0.0689,0.2067 0.20671,0.41341 0.20671,0.20671 0.0689,0.55122 0.34451,0.1378 0.34451,0.41341 0.0689,0.2756 0.34451,0.41341 -0.1378,0.41341 0.1378,0.82682 0.34451,0.41341 0.20671,1.03353 0.34451,0.27561 0.34451,0.41341 0,0.1378 0.0689,0.27561 0.13781,0.1378 0.27561,0.34451 0.20671,0.1378 0.20671,0.48231 0.3445,0.13781 0.55121,0.48231 0.27561,0.27561 0.62012,0.55122 0.1378,0.1378 0.27561,0.27561 0.2067,0.0689 0.3445,0.2067 0.34451,0.20671 0.55122,0.41342 0.20671,0.2067 0.41341,0.3445 0.34451,0.34451 0.62012,0.41342 0.27561,0 0.48231,0.1378 0.20671,0.1378 0.34451,0.27561 0.20671,0.1378 0.34451,0.2067 0.55122,0.20671 1.17133,0.27561 0.62012,0 1.10243,0.55122 0.55122,0 0.96463,0.2067 0.48231,0.13781 1.17133,0.0689 0.27561,0 0.41342,0.20671 0.1378,0.1378 0.48231,0.1378 0.34451,-0.0689 0.48231,-0.1378 0.13781,-0.0689 0.48232,-0.0689 0.3445,-0.0689 0.62011,0.0689 0.34451,0.0689 0.62012,0.0689 0.34451,-0.0689 0.75792,-0.27561 0.48231,-0.2067 0.68902,-0.34451 0.34451,-0.2067 0.62012,-0.34451 0.2756,-0.2067 0.68902,-0.2067 0.0689,-0.34451 0.2756,-0.48231 0.27561,-0.20671 0.48232,-0.41342 0.34451,-0.34451 0.62011,-0.55121 0.27561,-0.27561 0.48232,-0.62012 0.1378,-0.27561 0.34451,-0.41341 0.2067,-0.20671 0.34451,-0.41341 0.48231,-0.62012 0.82682,-1.24024 0.34451,-0.68901 0.68902,-1.37803 0.2067,-0.34451 0.41341,-0.68902 0.20671,-0.41341 0.34451,-0.82683 0.0689,-0.68901 0.1378,-0.82682 0.13781,-0.2067 0,-0.34451 0.13781,-0.55121 0.20671,-0.89572 0.1378,-0.41341 0.0689,-0.82683 0.34451,-0.34451 0.34451,-0.82682 0,-0.48231 0.1378,-1.10243 0.0689,-0.34451 0.20671,-0.55121 0.1378,-0.27561 0.1378,-0.62012 0.13781,-0.55122 0.13781,-1.24024 0,-0.75792 0,-1.10243 z"
         style="font-style:normal;font-variant:normal;font-weight:normal;font-stretch:normal;font-size:70.55555725px;font-family:'Chelsea Market';-inkscape-font-specification:'Chelsea Market, Normal';font-variant-ligatures:normal;font-variant-caps:normal;font-variant-numeric:normal;font-feature-settings:normal;text-align:start;writing-mode:lr-tb;text-anchor:start;stroke-width:0.26458335"
         id="path834" />
      <path
         d="m 302.8774,252.32035 q -0.20671,0.62012 -0.13781,1.17134 0.0689,0.55121 -0.0689,1.10243 -0.1378,0.82682 -0.34451,1.24023 -0.1378,0.34451 -0.34451,0.68902 -0.27561,0.55121 -0.55121,1.24023 -0.27561,0.62012 -0.41342,1.37804 -0.2756,0.13781 -0.48231,0.41341 -0.1378,0.20671 -0.34451,0.48232 -0.1378,0.2756 -0.41341,0.48231 -0.20671,0.1378 -0.27561,0.48231 -0.34451,0.0689 -0.55121,0.34451 -0.13781,0.20671 -0.34451,0.41341 -0.48232,0.48232 -0.68902,0.62012 -0.20671,0.0689 -0.41341,0.0689 -0.13781,0.34451 -0.41341,0.48232 -0.20671,0.1378 -0.48232,0.2756 -0.27561,0.13781 -0.55121,0.34451 -0.20671,0.20671 -0.48232,0.34451 -0.1378,0.0689 -0.34451,0 -0.2067,0 -0.41341,0.0689 -0.75792,0.34451 -1.24023,0.34451 -0.41341,0.0689 -0.75792,0.1378 -0.55122,0.1378 -1.10243,0.20671 -0.48232,0.1378 -1.17134,0 -0.96462,-0.27561 -1.24023,-0.34451 -0.27561,0 -0.62012,-0.13781 -0.62011,-0.2067 -1.03353,-0.41341 -0.34451,-0.1378 -0.68902,-0.20671 -0.41341,0.13781 -0.55121,0 -0.1378,-0.0689 -0.27561,-0.1378 -0.34451,-0.0689 -0.68902,-0.1378 -0.34451,-0.0689 -0.68902,-0.20671 -0.2067,-0.0689 -0.41341,-0.1378 -0.2067,-0.0689 -0.48231,-0.0689 -0.27561,-0.55122 -1.24024,-0.68902 -0.1378,-0.20671 -0.34451,-0.48232 -0.1378,-0.2756 -0.3445,-0.41341 -0.13781,-0.1378 -0.41342,-0.1378 -0.2756,-0.0689 -0.34451,-0.41341 -0.2756,0.0689 -0.41341,0 -0.1378,-0.0689 -0.34451,-0.13781 -0.2756,-0.2067 -0.48231,-0.48231 -0.20671,-0.27561 -0.68902,-0.34451 -0.1378,-0.62012 -0.55121,-0.75792 -0.34451,-0.13781 -0.55122,-0.62012 -0.0689,-0.2067 -0.0689,-0.55121 0,-0.41342 0,-0.62012 0.0689,-0.62012 0.68902,-1.44694 0.2756,-0.34451 0.48231,-0.55122 0.20671,-0.2067 0.48231,-0.55121 0.34451,-0.55122 0.55122,-0.75792 0.27561,-0.20671 0.41341,-0.34451 0.20671,-0.34451 0.27561,-0.68902 0.0689,-0.41341 0.2067,-0.68902 0.34451,-0.62012 0.27561,-0.89573 0,-0.2756 0.20671,-0.41341 0.68902,-0.55121 1.17133,-0.55121 0.75792,0 1.24023,0.55121 0.48232,0.48232 0.96463,0.68902 0.34451,0.75792 0.34451,1.03353 0,0.27561 0.1378,0.48231 0.41342,0.62012 0.96463,0.96463 0.62012,0.34451 1.10243,0.89573 0.75792,0.2756 1.65365,0.41341 0.96462,0.1378 1.92925,0 0.27561,-0.0689 0.55122,-0.0689 0.2756,0 0.41341,0 0.48231,-0.13781 0.75792,-0.41342 0.34451,-0.34451 0.68902,-0.48231 0.0689,-0.41341 0.2067,-0.75792 0.13781,-0.34451 0.27561,-0.75792 0.0689,-0.13781 0.0689,-0.34451 0,-0.20671 0.0689,-0.41341 0.1378,-0.48232 0.1378,-0.82683 0.0689,-0.41341 -0.20671,-0.96462 -0.34451,-0.55122 -0.41341,-0.62012 -0.0689,-0.1378 -0.1378,-0.20671 -0.55122,-0.68901 -1.24024,-1.17133 -0.62011,-0.55121 -0.96462,-1.30913 -0.34451,-0.13781 -0.75792,-0.27561 -0.34451,-0.13781 -0.48232,-0.55122 -0.75792,-0.0689 -1.44694,-0.34451 -0.62011,-0.34451 -1.37804,-0.55121 -0.2067,-0.13781 -0.48231,-0.13781 -0.2067,0 -0.34451,-0.1378 -0.2067,-0.1378 -0.41341,-0.34451 -0.1378,-0.2067 -0.48231,-0.1378 -0.13781,-0.48232 -0.55122,-0.68902 -0.41341,-0.27561 -0.62012,-0.68902 -0.34451,0 -0.75792,-0.13781 -0.62011,-0.2067 -0.75792,-0.3445 -0.1378,-0.0689 -0.0689,-0.13781 -0.41341,-0.1378 -0.82682,-0.48231 -0.41341,-0.34451 -0.62012,-0.62012 -0.1378,-0.55121 -0.41341,-0.82682 -0.27561,-0.34451 -0.41341,-0.62012 -0.13781,-0.34451 -0.20671,-0.68902 0,-0.41341 -0.41341,-0.68902 0.1378,-0.34451 0,-0.68902 -0.0689,-0.34451 -0.20671,-0.68902 -0.0689,-0.2756 -0.2067,-0.55121 -0.0689,-0.27561 -0.0689,-0.55122 0,-0.34451 0.0689,-0.75792 0.1378,-0.41341 0.1378,-0.75792 0.0689,-0.48231 0,-0.96463 0,-0.48231 0.0689,-0.96462 0.0689,-0.55122 0.13781,-0.68902 0.0689,-0.20671 0.2067,-0.34451 0.0689,-0.62012 0.0689,-0.96463 0,-0.34451 0.1378,-0.82682 0.1378,-0.34451 0.27561,-0.48231 0.1378,-0.20671 0.34451,-0.55122 0.2756,-0.48231 0.62011,-1.10243 0.41342,-0.62012 0.96463,-0.89572 0.20671,-0.82683 0.75792,-1.24024 0.55122,-0.41341 0.89573,-1.10243 0.34451,0 0.62011,-0.1378 0.27561,-0.13781 0.55122,-0.27561 0.27561,-0.20671 0.75792,-0.27561 0.55122,-0.1378 1.03353,-0.1378 0.34451,-0.13781 0.55121,-0.27561 0.20671,-0.20671 0.41342,-0.34451 0.75792,-0.1378 0.96462,-0.1378 0.20671,0 0.41341,0 0.82683,-0.27561 1.51585,-0.41341 0.68901,-0.13781 1.44694,0 0.62011,0.3445 0.82682,0.3445 0.2067,-0.0689 0.48231,0 0.48232,0.27561 0.68902,0.41342 0.27561,0.0689 0.48231,0.2067 0.20671,0.13781 0.34451,0.27561 0.13781,0.1378 0.34451,0.20671 0.20671,0.1378 0.48232,0.2067 0.2756,0.0689 0.48231,0.20671 0.20671,0.1378 0.55122,0.48231 0.34451,0.27561 0.75792,0.48231 0.34451,0.20671 0.41341,0.41342 0.1378,0.2067 0.2067,0.2756 0.13781,0.13781 0.27561,0.27561 0.13781,0.1378 0.27561,0.48231 0.1378,0.27561 0.2067,0.62012 0.13781,0.34451 0.34451,0.48231 0.48232,0.13781 0.96463,0.27561 0.55122,0.13781 0.75792,0.55122 0.0689,0.2067 0,0.41341 -0.0689,0.2067 -0.1378,0.55121 -0.27561,0.75793 -1.03353,1.44694 -0.48231,0.55122 -0.62012,0.75793 -0.1378,0.2067 -0.27561,0.3445 -0.62011,0.89573 -1.10243,1.37804 -0.41341,0.41341 -0.75792,0.82683 -1.03353,0.55121 -1.44694,0.41341 -0.34451,-0.20671 -0.55121,-0.55122 -0.13781,-0.27561 -0.41341,-0.34451 -0.27561,-0.1378 -0.13781,-0.55121 -0.41341,-0.0689 -0.68902,-0.27561 -0.2067,-0.27561 -0.48231,-0.55122 -0.41341,-0.41341 -0.55122,-0.48231 -0.1378,-0.0689 -0.2067,-0.1378 -0.20671,-0.13781 -0.48231,-0.20671 -0.20671,-0.1378 -0.55122,-0.27561 -0.89572,-0.34451 -1.44694,-0.41341 -0.48231,-0.1378 -0.82682,-0.41341 -0.41341,0.34451 -0.82683,0.41341 -0.41341,0 -0.75792,0.20671 -0.1378,0.1378 -0.41341,0.55121 -0.2067,0.41341 -0.34451,0.96463 -0.1378,0.48231 -0.2067,1.03353 0,0.48231 0.2067,0.89572 0.34451,0.62012 0.41341,0.82683 0.0689,0.1378 0.41342,0.48231 0.96462,0.55122 1.72254,1.03353 0.75792,0.41341 1.30914,0.68902 0.0689,0.34451 0.27561,0.62011 0.2756,0.20671 0.2756,0.55122 0.68902,0.34451 0.96463,0.48231 0.27561,0.0689 0.55122,0.20671 0.62011,0.34451 0.82682,0.75792 0.27561,0.34451 0.55122,0.48231 0.2756,0.13781 0.48231,0.20671 0.27561,0.0689 0.48231,0.27561 0.96463,0.48231 1.86035,1.58474 0.34451,-0.0689 0.48232,0.1378 0.2067,0.13781 0.34451,0.27561 0.34451,0.20671 0.55121,0.34451 0.20671,0.13781 0.48231,0.48232 0.20671,0.41341 0.96463,0.75792 0.34451,0.68902 0.82682,1.24023 0.48232,0.55122 0.82683,1.17133 0,0.27561 0,0.48232 0,0.2067 -0.13781,0.34451 0.48232,0.34451 0.48232,0.89572 0,0.55122 0.1378,1.17133 0.1378,0.48232 0.41341,0.96463 0.34451,0.41341 0.13781,1.17133 z"
         style="font-style:normal;font-variant:normal;font-weight:normal;font-stretch:normal;font-size:70.55555725px;font-family:'Chelsea Market';-inkscape-font-specification:'Chelsea Market, Normal';font-variant-ligatures:normal;font-variant-caps:normal;font-variant-numeric:normal;font-feature-settings:normal;text-align:start;writing-mode:lr-tb;text-anchor:start;stroke-width:0.26458335"
         id="path836" />
    </g>
  </g>
</svg>
